<svg
    xmlns="http://www.w3.org/2000/svg" width="404.695" height="596.635" viewBox="0 0 107.076 157.86" version="1.1" id="svg8">
    
        <g  transform="translate(-671.5 -96.66)">
            <g  transform="matrix(.26458 0 0 .26458 36.588 34.987)" opacity="1" fill="#4b4b4b" fill-opacity="1">
                <g  transform="matrix(.81002 0 0 .81002 2394.51 233.092)" opacity="1">
                    <g  fill="#4b4b4b" fill-opacity="1" class="question-svg">
                        <path  d="M396.138 85.295c-13.172-25.037-33.795-45.898-59.342-61.03C311.26 9.2 280.435.001 246.98.001c-41.238-.102-75.5 10.642-101.359 25.521-25.962 14.826-37.156 32.088-37.156 32.088a19.471 19.471 0 00-6.721 15.056 19.425 19.425 0 007.273 14.784l35.933 28.78c7.324 5.864 17.806 5.644 24.875-.518 0 0 4.414-7.978 18.247-15.88 13.91-7.85 31.945-14.173 58.908-14.258 23.517-.051 44.022 8.725 58.016 20.717 6.952 5.941 12.145 12.594 15.328 18.68 3.208 6.136 4.379 11.5 4.363 15.574-.068 13.766-2.742 22.77-6.603 30.442-2.945 5.729-6.789 10.813-11.738 15.744-7.384 7.384-17.398 14.207-28.634 20.479-11.245 6.348-23.365 11.932-35.612 18.68-13.978 7.74-28.77 18.858-39.701 35.544-5.449 8.249-9.71 17.686-12.416 27.641-2.742 9.964-3.98 20.412-3.98 31.071v20.708c0 10.719 8.69 19.41 19.41 19.41h46.762c10.719 0 19.41-8.691 19.41-19.41v-20.708c0-4.107.467-6.755.917-8.436.773-2.512 1.206-3.14 2.47-4.668 1.29-1.452 3.895-3.674 8.698-6.331 7.019-3.946 18.298-9.276 31.07-16.176 19.121-10.456 42.367-24.646 61.972-48.062 9.752-11.686 18.374-25.758 24.323-41.968 6.001-16.21 9.242-34.431 9.226-53.96-.018-19.784-5.382-38.574-14.123-55.25z" class="question-svg" fill="#4b4b4b" fill-opacity="1"/>
                        <path d="M228.809 406.44c-29.152 0-52.788 23.644-52.788 52.788 0 29.136 23.637 52.772 52.788 52.772 29.136 0 52.763-23.636 52.763-52.772 0-29.144-23.627-52.788-52.763-52.788z" class="question-svg" fill="#4b4b4b" fill-opacity="1"/>
                    </g>
                </g>
                <g class="question-svg" aria-label="About" transform="translate(1400.657 294.055)" style="line-height:0;-inkscape-font-specification:sans-serif;font-variant-ligatures:normal;font-variant-caps:normal;font-variant-numeric:normal;font-feature-settings:normal;text-align:start"  font-style="normal" font-variant="normal" font-weight="400" font-stretch="normal" font-size="133.333" font-family="sans-serif" letter-spacing="4.25" word-spacing="0" writing-mode="lr-tb" text-anchor="start" opacity="1" stroke="none">
                    <path d="M1086.768 507.65h-13.737l-9.506-27.018h-41.927l-9.505 27.019h-13.086l35.287-96.94h17.187zm-27.214-38.085l-16.992-47.592-17.057 47.592z" />
                    <path d="M1168.752 470.736q0 9.115-2.604 16.407-2.54 7.291-6.901 12.24-4.623 5.143-10.157 7.747-5.533 2.539-12.174 2.539-6.185 0-10.807-1.498-4.623-1.432-9.115-3.906l-.781 3.386h-11.458V406.348h12.24v36.198q5.142-4.231 10.937-6.9 5.794-2.735 13.02-2.735 12.891 0 20.313 9.896 7.487 9.896 7.487 27.93zm-12.63.326q0-13.02-4.297-19.727-4.297-6.77-13.867-6.77-5.339 0-10.808 2.343-5.468 2.279-10.156 5.925V494.5q5.209 2.343 8.92 3.255 3.776.911 8.528.911 10.156 0 15.886-6.64 5.794-6.706 5.794-20.964z"/>
                    <path d="M1254.057 471.322q0 17.774-9.115 28.06-9.115 10.287-24.414 10.287-15.43 0-24.544-10.287-9.05-10.286-9.05-28.06 0-17.773 9.05-28.06 9.114-10.351 24.544-10.351 15.3 0 24.414 10.352 9.115 10.286 9.115 28.06zm-12.63 0q0-14.127-5.534-20.963-5.534-6.901-15.365-6.901-9.96 0-15.495 6.9-5.468 6.837-5.468 20.964 0 13.672 5.533 20.769 5.534 7.03 15.43 7.03 9.766 0 15.3-6.965 5.599-7.031 5.599-20.834z" />
                    <path d="M1337.603 507.65h-12.24v-8.072q-6.184 4.882-11.848 7.487-5.664 2.604-12.5 2.604-11.458 0-17.839-6.966-6.38-7.032-6.38-20.573v-47.2h12.24v41.405q0 5.534.52 9.506.521 3.906 2.214 6.705 1.758 2.865 4.557 4.167 2.8 1.302 8.138 1.302 4.753 0 10.352-2.474 5.664-2.474 10.547-6.315V434.93h12.24z" />
                    <path d="M1403.703 507q-3.451.911-7.553 1.497-4.036.586-7.226.586-11.133 0-16.927-5.99-5.795-5.99-5.795-19.205v-38.672h-8.268v-10.287h8.268v-20.898h12.24v20.898h25.26v10.287h-25.26v33.138q0 5.729.26 8.984.26 3.19 1.823 5.99 1.433 2.604 3.907 3.84 2.539 1.173 7.682 1.173 2.995 0 6.25-.847 3.255-.911 4.687-1.497h.651z"/>
                </g>
            </g>
        </g>
    
    <!-- <style id="style815" type="text/css">.about-svg{fill:#4b4b4b}</style><style id="style22" type="text/css">.about-svg{fill:#4b4b4b}</style><style id="style70" type="text/css">.about-svg{fill:#4b4b4b}</style><style id="style106" type="text/css">.about-svg{fill:#4b4b4b}</style><style id="style155" type="text/css">.about-svg{fill:#4b4b4b}</style> -->
</svg>