<svg
    xmlns="http://www.w3.org/2000/svg" width="528.755" height="537.499" viewBox="0 0 139.9 142.213">
    <g fill="#4b4b4b" class="mail-svg">
        <path d="M119.974 11.22a13.89 13.89 0 00-2.876-6.09 11.974 11.974 0 00-.946-1.048A13.897 13.897 0 00106.305 0H33.75a13.916 13.916 0 00-9.846 4.082 12.23 12.23 0 00-.946 1.048 13.724 13.724 0 00-2.864 6.09c-.18.88-.272 1.79-.272 2.709v50.956c0 1.955.415 3.834 1.154 5.531a13.651 13.651 0 002.927 4.315c.312.311.622.597.96.881 2.41 1.996 5.52 3.2 8.887 3.2h72.554c3.369 0 6.493-1.204 8.888-3.212a13.938 13.938 0 003.9-5.183v-.013a13.781 13.781 0 001.14-5.518V13.929c0-.92-.09-1.829-.26-2.709zm-91.03-2.099a6.728 6.728 0 014.807-1.995h72.554a6.702 6.702 0 015.417 2.708L73.695 42.976a5.52 5.52 0 01-3.667 1.373 5.57 5.57 0 01-3.666-1.373L28.349 9.82a5.14 5.14 0 01.595-.699zM26.95 64.885V17.194L54.469 41.2 26.962 65.182c-.014-.09-.014-.193-.014-.297zm79.356 6.8H33.75a6.709 6.709 0 01-3.368-.892l29.02-25.29 2.71 2.357a12.08 12.08 0 007.915 2.968c2.825 0 5.662-.998 7.93-2.968l2.707-2.357 29.01 25.29a6.718 6.718 0 01-3.37.893zm6.802-6.8c0 .104 0 .206-.013.297L85.589 41.215l27.518-24.009z"/>
        <g aria-label="Contact" style="line-height:0;-inkscape-font-specification:sans-serif;font-variant-ligatures:normal;font-variant-caps:normal;font-variant-numeric:normal;font-feature-settings:normal;text-align:start" font-weight="400" font-size="133.333" font-family="sans-serif" letter-spacing="4.25" word-spacing="0">
            <path d="M21.273 132.939q-.947.413-1.722.775-.758.362-1.998.758-1.051.327-2.291.551-1.223.241-2.705.241-2.79 0-5.081-.775-2.274-.792-3.962-2.463Q1.86 130.39.93 127.875 0 125.343 0 122q0-3.17.896-5.667.895-2.498 2.584-4.22 1.636-1.671 3.944-2.55 2.326-.878 5.15-.878 2.068 0 4.118.5 2.067.499 4.581 1.756v4.048h-.258q-2.119-1.774-4.203-2.584t-4.461-.81q-1.947 0-3.514.638-1.55.62-2.774 1.946-1.188 1.292-1.86 3.273-.655 1.964-.655 4.548 0 2.704.724 4.65.74 1.947 1.895 3.17 1.206 1.275 2.807 1.895 1.62.603 3.411.603 2.463 0 4.617-.844 2.153-.844 4.03-2.532h.241zM43.396 125.188q0 4.702-2.412 7.424-2.411 2.721-6.46 2.721-4.082 0-6.493-2.721-2.395-2.722-2.395-7.424 0-4.703 2.395-7.425 2.411-2.738 6.494-2.738 4.048 0 6.46 2.738 2.41 2.722 2.41 7.425zm-3.342 0q0-3.738-1.464-5.547-1.464-1.826-4.065-1.826-2.636 0-4.1 1.826-1.447 1.809-1.447 5.547 0 3.617 1.464 5.494 1.464 1.86 4.083 1.86 2.584 0 4.048-1.842 1.481-1.86 1.481-5.512zM65.639 134.8H62.4v-10.956q0-1.326-.155-2.48-.155-1.172-.568-1.826-.43-.724-1.24-1.068-.81-.362-2.102-.362-1.326 0-2.773.654-1.447.655-2.773 1.671V134.8H49.55v-19.24h3.239v2.135q1.515-1.257 3.135-1.963 1.619-.706 3.324-.706 3.118 0 4.754 1.877 1.637 1.878 1.637 5.409zM82.99 134.627q-.913.241-1.999.396-1.068.155-1.912.155-2.945 0-4.478-1.584-1.533-1.585-1.533-5.082V118.28H70.88v-2.721h2.188v-5.53h3.238v5.53h6.684v2.721h-6.684v8.768q0 1.516.069 2.377.069.844.482 1.585.38.689 1.034 1.016.672.31 2.032.31.793 0 1.654-.224.861-.24 1.24-.396h.173zM102.993 134.8h-3.22v-2.05q-.432.292-1.172.826-.724.517-1.413.827-.81.396-1.86.655-1.05.275-2.463.275-2.601 0-4.41-1.722-1.809-1.723-1.809-4.393 0-2.187.93-3.53.948-1.362 2.688-2.137 1.757-.775 4.22-1.05 2.463-.276 5.288-.414v-.5q0-1.102-.396-1.825-.38-.724-1.103-1.137-.689-.397-1.653-.534-.965-.138-2.016-.138-1.274 0-2.842.344-1.567.328-3.238.965h-.172v-3.29q.947-.258 2.738-.569 1.792-.31 3.532-.31 2.032 0 3.53.345 1.517.327 2.62 1.137 1.084.792 1.653 2.05.568 1.257.568 3.117zm-3.22-4.738v-5.357q-1.482.086-3.498.259-1.998.172-3.17.5-1.394.395-2.256 1.24-.861.826-.861 2.29 0 1.654 1 2.498.998.827 3.048.827 1.705 0 3.118-.655 1.412-.671 2.618-1.602zM124.616 133.594q-1.62.775-3.083 1.205-1.447.431-3.084.431-2.084 0-3.824-.603-1.74-.62-2.98-1.86-1.257-1.24-1.946-3.135-.69-1.895-.69-4.427 0-4.72 2.585-7.407 2.6-2.687 6.855-2.687 1.654 0 3.239.465 1.602.465 2.928 1.137v3.6h-.172q-1.482-1.154-3.066-1.774-1.568-.62-3.067-.62-2.756 0-4.358 1.86-1.584 1.843-1.584 5.426 0 3.48 1.55 5.357 1.568 1.86 4.392 1.86.982 0 1.999-.258 1.016-.258 1.826-.672.706-.362 1.326-.758.62-.413.982-.706h.172zM139.9 134.627q-.913.241-1.998.396-1.068.155-1.912.155-2.946 0-4.479-1.584-1.533-1.585-1.533-5.082V118.28h-2.188v-2.721h2.188v-5.53h3.238v5.53h6.684v2.721h-6.684v8.768q0 1.516.07 2.377.068.844.482 1.585.379.689 1.033 1.016.672.31 2.033.31.792 0 1.653-.224.862-.24 1.24-.396h.173z"/>
        </g>
    </g>
</svg>