<svg
    xmlns="http://www.w3.org/2000/svg" width="549.766" height="595.162" viewBox="0 0 145.459 157.47" version="1.1" id="svg8">
    <g  transform="translate(-512.485 -97.049)" class="person-svg">
        <g  transform="matrix(.26458 0 0 .26458 36.588 34.987)" opacity="1" fill="#4b4b4b" fill-opacity="1" class="person-svg">
            <g  transform="matrix(.81002 0 0 .81002 1865.455 234.565)" opacity="1">
                <g  fill="#4b4b4b" fill-opacity="1" class="person-svg">
                    <path class="person-svg" d="M256 265.308c73.252 0 132.644-59.391 132.644-132.654C388.644 59.412 329.252 0 256 0c-73.262 0-132.643 59.412-132.643 132.654 0 73.263 59.381 132.654 132.643 132.654z" class="st0" fill="#4b4b4b" fill-opacity="1"/>
                    <path class="person-svg" d="M425.874 393.104c-5.922-35.474-36-84.509-57.552-107.465-5.829-6.212-15.948-3.628-19.504-1.427-27.04 16.672-58.782 26.399-92.819 26.399-34.036 0-65.778-9.727-92.818-26.399-3.555-2.201-13.675-4.785-19.505 1.427-21.55 22.956-51.628 71.991-57.551 107.465C71.573 480.444 164.877 512 256 512s184.427-31.556 169.874-118.896z" class="st0" fill="#4b4b4b" fill-opacity="1"/>
                </g>
            </g>
            <g aria-label="Member" transform="translate(788.331 294.055)" style="line-height:0;-inkscape-font-specification:sans-serif;font-variant-ligatures:normal;font-variant-caps:normal;font-variant-numeric:normal;font-feature-settings:normal;text-align:start"  font-style="normal" font-variant="normal" font-weight="400" font-stretch="normal" font-size="133.333" font-family="sans-serif" letter-spacing="4.25" word-spacing="0" writing-mode="lr-tb" text-anchor="start" opacity="1" stroke="none" class="person-svg">
                <path d="M1096.663 507.65h-12.89v-83.528l-26.953 56.836h-7.683l-26.757-56.836v83.529h-12.045v-96.94h17.578l25.847 53.97 25-53.97h17.903z" />
                <path d="M1186.981 472.56h-53.58q0 6.705 2.018 11.718 2.018 4.948 5.533 8.138 3.386 3.125 8.008 4.688 4.688 1.562 10.287 1.562 7.422 0 14.909-2.93 7.552-2.994 10.742-5.859h.65v13.346q-6.184 2.605-12.63 4.362-6.445 1.758-13.541 1.758-18.099 0-28.255-9.765-10.157-9.831-10.157-27.865 0-17.838 9.701-28.32 9.766-10.482 25.651-10.482 14.714 0 22.656 8.594 8.008 8.593 8.008 24.414zm-11.914-9.376q-.065-9.635-4.883-14.908-4.752-5.274-14.518-5.274-9.83 0-15.69 5.794-5.794 5.795-6.576 14.388z" />
                <path d="M1315.906 507.65h-12.24v-41.406q0-4.687-.456-9.05-.39-4.361-1.758-6.965-1.497-2.8-4.296-4.232-2.8-1.432-8.073-1.432-5.144 0-10.287 2.604-5.143 2.539-10.286 6.51.195 1.498.325 3.516.13 1.953.13 3.906v46.55h-12.24v-41.407q0-4.817-.455-9.114-.39-4.362-1.758-6.966-1.497-2.8-4.297-4.167-2.799-1.432-8.072-1.432-5.013 0-10.092 2.474-5.013 2.474-10.026 6.315v54.297h-12.24v-72.722h12.24v8.073q5.73-4.752 11.394-7.422 5.729-2.669 12.174-2.669 7.422 0 12.565 3.125 5.209 3.125 7.748 8.659 7.421-6.25 13.541-8.985 6.12-2.799 13.086-2.799 11.98 0 17.643 7.292 5.73 7.226 5.73 20.247z" id="path67"/>
                <path d="M1407.72 470.736q0 9.115-2.603 16.407-2.54 7.291-6.901 12.24-4.623 5.143-10.157 7.747-5.534 2.539-12.174 2.539-6.185 0-10.807-1.498-4.623-1.432-9.115-3.906l-.781 3.386h-11.459V406.348h12.24v36.198q5.143-4.231 10.937-6.9 5.795-2.735 13.021-2.735 12.89 0 20.313 9.896 7.487 9.896 7.487 27.93zm-12.63.326q0-13.02-4.296-19.727-4.297-6.77-13.868-6.77-5.338 0-10.807 2.343-5.469 2.279-10.156 5.925V494.5q5.208 2.343 8.92 3.255 3.775.911 8.528.911 10.156 0 15.885-6.64 5.794-6.706 5.794-20.964z" />
                <path d="M1491.919 472.56h-53.581q0 6.705 2.018 11.718 2.018 4.948 5.534 8.138 3.385 3.125 8.008 4.688 4.687 1.562 10.286 1.562 7.422 0 14.91-2.93 7.551-2.994 10.741-5.859h.651v13.346q-6.185 2.605-12.63 4.362-6.445 1.758-13.542 1.758-18.099 0-28.255-9.765-10.156-9.831-10.156-27.865 0-17.838 9.7-28.32 9.766-10.482 25.652-10.482 14.713 0 22.656 8.594 8.008 8.593 8.008 24.414zm-11.914-9.376q-.065-9.635-4.883-14.908-4.753-5.274-14.519-5.274-9.83 0-15.69 5.794-5.794 5.795-6.575 14.388z" />
                <path d="M1560.101 448.276h-.651q-2.734-.651-5.339-.912-2.539-.325-6.054-.325-5.664 0-10.938 2.539-5.273 2.474-10.156 6.445v51.628h-12.24v-72.722h12.24v10.742q7.292-5.859 12.826-8.268 5.598-2.474 11.393-2.474 3.19 0 4.622.196 1.432.13 4.297.585z" />
            </g>
        </g>
    </g>
    <!-- <style id="style815" type="text/css">.st0{fill:#4b4b4b}</style><style id="style22" type="text/css">.st0{fill:#4b4b4b}</style><style id="style70" type="text/css">.st0{fill:#4b4b4b}</style><style id="style106" type="text/css">.st0{fill:#4b4b4b}</style><style id="style155" type="text/css">.st0{fill:#4b4b4b}</style> -->
</svg>