<svg xmlns="http://www.w3.org/2000/svg" width="347.667" height="593.159" viewBox="0 0 91.987 156.94"><g fill="#4b4b4b"><path d="M87.931 34.556h-.003L54.769 3.472A12.81 12.81 0 0045.992 0a12.824 12.824 0 00-8.78 3.472L4.055 34.556A12.834 12.834 0 000 43.921v52.974a12.813 12.813 0 003.76 9.077 12.814 12.814 0 009.076 3.76h66.315a12.826 12.826 0 009.076-3.76 12.824 12.824 0 003.76-9.077V43.92c0-3.55-1.47-6.939-4.056-9.365zm-6.165 62.34a2.581 2.581 0 01-.769 1.847 2.575 2.575 0 01-1.846.767h-21.8V76.799H34.636V99.51h-21.8a2.59 2.59 0 01-1.85-.765 2.57 2.57 0 01-.765-1.85V43.921a2.6 2.6 0 01.825-1.907l33.159-31.086a2.577 2.577 0 011.787-.707 2.585 2.585 0 011.786.706l33.16 31.084v.002c.528.495.828 1.186.828 1.908v52.974z"/><g aria-label="Top" style="line-height:0;-inkscape-font-specification:sans-serif;font-variant-ligatures:normal;font-variant-caps:normal;font-variant-numeric:normal;font-feature-settings:normal;text-align:start" font-weight="400" font-size="133.333" font-family="sans-serif" letter-spacing="4.25" word-spacing="0"><path d="M36.743 127.226H27.58v22.617h-3.41v-22.617h-9.164v-3.032h21.738zM53.698 140.231q0 4.703-2.412 7.424-2.411 2.722-6.46 2.722-4.082 0-6.493-2.722-2.394-2.721-2.394-7.424 0-4.702 2.394-7.424 2.411-2.739 6.494-2.739 4.048 0 6.46 2.739 2.411 2.722 2.411 7.424zm-3.342 0q0-3.738-1.464-5.546-1.464-1.826-4.065-1.826-2.636 0-4.1 1.826-1.447 1.808-1.447 5.546 0 3.618 1.464 5.495 1.465 1.86 4.083 1.86 2.584 0 4.048-1.843 1.481-1.86 1.481-5.512zM76.785 139.99q0 2.343-.672 4.29-.672 1.928-1.895 3.272-1.137 1.275-2.687 1.98-1.533.69-3.255.69-1.5 0-2.722-.327-1.206-.328-2.463-1.017v8.062h-3.239v-26.338h3.239v2.016q1.292-1.086 2.894-1.81 1.619-.74 3.445-.74 3.48 0 5.408 2.636 1.947 2.618 1.947 7.286zm-3.342.086q0-3.48-1.188-5.202-1.189-1.723-3.652-1.723-1.395 0-2.808.603-1.412.603-2.704 1.585v10.904q1.378.62 2.36.844.999.224 2.256.224 2.705 0 4.22-1.826 1.516-1.826 1.516-5.409z"/></g></g></svg>