<svg
    xmlns="http://www.w3.org/2000/svg" width="417.195" height="595.18" viewBox="0 0 110.383 157.475">
    <g fill="#4b4b4b">
        <path class="arm-svg" d="M109.686 74.019c-.381-1.287-1.144-3.623-2.526-7.813C102.686 52.49 78.156 4.388 78.156 4.388c-1.382-3-4.526-4.717-7.81-4.335L40.007 3.77c-2.051.236-3.814 1.473-4.814 3.282 0 0-3.52 5.765-5 9.337-1.474 3.572-.618 7.144 2.382 9.24 3 2.092 17.287 5.666 20.004 4.475 4.526-2.002 6.86-11.047 6.86-11.047l6.856-1.19s2.86 9.854 2.382 18.524c-.619 10.716.076 15.182 1.556 24.42-1.877.646-3.845-1.721-7.937-5.558-12.7-11.906-28.612-7.233-35.675 3.19-1.856-1.572-8.78-2.394-16.716-3.19v54.787C23.4 108.454 29.43 99.225 29.43 99.225c7.387 1.474 18.778.48 28.196-1.112 17.4-2.943 28.957-9.664 28.957-9.664l19.15-6.477c3.284-1.142 5.045-4.668 3.953-7.953z"/>
        <path class="arm-svg" d="M31.712 124.412l-6.666 25.649h-3.841l-5.392-21.291-5.271 21.29H6.787L0 124.413h3.497l5.391 21.325 5.306-21.325h3.462l5.357 21.532 5.357-21.532zM52.267 140.449q0 4.702-2.412 7.424-2.411 2.722-6.46 2.722-4.082 0-6.493-2.722-2.395-2.722-2.395-7.424 0-4.703 2.395-7.424 2.411-2.74 6.494-2.74 4.048 0 6.46 2.74 2.41 2.721 2.41 7.424zm-3.342 0q0-3.738-1.464-5.547-1.464-1.826-4.065-1.826-2.636 0-4.1 1.826-1.447 1.809-1.447 5.547 0 3.617 1.464 5.495 1.465 1.86 4.083 1.86 2.584 0 4.048-1.843 1.481-1.86 1.481-5.512zM70.427 134.351h-.172q-.723-.172-1.412-.241-.672-.086-1.602-.086-1.499 0-2.894.672-1.395.654-2.687 1.705v13.66H58.42V130.82h3.239v2.842q1.929-1.55 3.393-2.188 1.481-.654 3.015-.654.844 0 1.223.052.378.034 1.136.155zM92.102 150.06H87.83l-7.717-8.423-2.102 1.999v6.425h-3.238v-26.803h3.238v17.19l9.354-9.628h4.082l-8.94 8.888zM110.383 144.514q0 2.636-2.188 4.324-2.17 1.688-5.942 1.688-2.136 0-3.928-.5-1.774-.516-2.98-1.12v-3.634h.172q1.533 1.154 3.411 1.843 1.878.672 3.6.672 2.136 0 3.342-.69 1.206-.688 1.206-2.17 0-1.136-.655-1.722-.654-.586-2.515-1-.689-.154-1.809-.36-1.102-.208-2.015-.449-2.532-.671-3.6-1.963-1.05-1.31-1.05-3.204 0-1.189.482-2.24.5-1.05 1.498-1.877.965-.81 2.446-1.275 1.499-.482 3.342-.482 1.722 0 3.48.43 1.774.414 2.945 1.017v3.462h-.172q-1.24-.913-3.015-1.533-1.774-.637-3.48-.637-1.773 0-2.996.689-1.223.671-1.223 2.015 0 1.189.74 1.791.724.603 2.343.982.896.207 1.998.414 1.12.206 1.86.379 2.257.516 3.48 1.774 1.223 1.275 1.223 3.376z" style="line-height:0;-inkscape-font-specification:sans-serif;font-variant-ligatures:normal;font-variant-caps:normal;font-variant-numeric:normal;font-feature-settings:normal;text-align:start" font-weight="400" font-size="133.333" font-family="sans-serif" letter-spacing="4.25" word-spacing="0"/>
    </g>
</svg>