<svg xmlns="http://www.w3.org/2000/svg" width="600.087" height="600.087"><path opacity=".99" d="M200.029 200.029h200.029v200.029H200.029z"/><path opacity=".99" fill="#fff" d="M200.029 400.058h200.029v200.029H200.029z"/><path opacity=".99" d="M400.058 1.212h200.029v200.029H400.058z"/><path opacity=".99" d="M400.058 200.029h200.029v200.029H400.058zM200.029 0h200.029v200.029H200.029z" fill="#fff"/><path opacity=".99" d="M0 0h200.029v200.029H0z"/><path opacity=".99" d="M0 200.029h200.029v200.029H0z" fill="#fff"/><path opacity=".99" d="M.586 400.058h200.029v200.029H.586z"/><path d="M400.058 55.717c-24.101 2.715-45.838 28.426-51.671 46.624-3.59 11.5-2.776 23.43-7.473 36.844-33.462 17.305-55.593 35.503-71.48 50.265l12.19-3.318c-9.336 2.338-18.22 9.67-24.763 13.897h143.197z" fill="#000300"/><path d="M412.677 54.538a92.797 92.932 0 00-12.619 1.008v145.695h59.1c6.058-22.143 7.647-46.576-.221-72.927 15.405-13.65 18.708-32.553 91.042-53.543-17.903-9.385-43.074-26.323-96.454 1.418-6.144-17.04-24.068-21.834-40.848-21.651zM102.06 400.058a372.9 372.9 0 00-4.75 8l9.77-5.255c-44.422 46.772-61.458 76.76-52.553 80.899 6.34 2.945 28.416-10.52 51.408-25.394L59.28 526.12c-15.673 23.807-5.382 22.718 16.875 8.594.625 12.293 5.055 15.546 24.375-1.781 14.697-27.028 67.69-95.29 100.094-131.438v-1.437z" fill="#fff"/><path d="M315.91 400.058c-7.142 8.039-7.763 12.845-11.48 19.813 21.174-27.757 70.814-20.087 85.91 6.593-2.644-12.188-5.64-20.463-9.782-26.406z"/><path d="M256.861 200.029c-7.316 5.006-12.589 10.123-15.485 12.88l8.691-1.446-51.262 39.955v1.32l10.366-2.387a702.604 698.332 0 00-10.366 9.423v140.284h1.233c1.208-1.322 2.463-2.707 3.602-3.926 12.526-16.103 52.817-26.502 77.714-37.506l49.524 28.334c-6.776 5.299-11.441 9.51-14.822 13.098h64.502c-6.965-9.072-17.064-12.424-33.752-16.397l-45.92-36.595c23.656-4.64 51.197-9.766 76.938-21.445l-4.376 9.917c7.005-6.618 16.611-17.095 26.61-28.175V200.03z" fill="#fff"/><path d="M200.029 258.642c-37.857 36.147-59.14 65.056-76.031 92.037l15.781-7.334c-12.57 19.182-25.148 35.784-37.719 56.713h97.969zm200.029-58.613v107.334c1.932-2.156 3.866-4.303 5.81-6.476l1.46 8.38c3.264-22.73 38.347-60.423 52.064-109.238z"/><path opacity=".99" d="M400.058 400.058h200.029v200.029H400.058z"/></svg>