<svg xmlns="http://www.w3.org/2000/svg" width="976.489" height="332.627" viewBox="0 0 258.363 88.008"><g font-weight="500" font-size="133.333" font-family="BIZ UDPMincho" letter-spacing="4.25" word-spacing="0" fill="#fff"><path style="line-height:0;-inkscape-font-specification:'BIZ UDPMincho, Medium';font-variant-ligatures:normal;font-variant-caps:normal;font-variant-numeric:normal;font-feature-settings:normal;text-align:start" d="M10.78 11.967q1.781 1.623 3.939 2.702 1.91.94 4.553 1.614-.574.455-1.158 1.297-4.702-1.574-7.938-5.088v6.364H8.879v-6.018Q5.622 16.144.485 18.065L0 17.322q4.405-1.673 7.978-5.355h-3.84v.91H2.9V4.732l.1.03.405.158.841.337H8.88V3.464H.772l-.267-.99h8.374V.06q2.177.1 2.177.565 0 .277-.88.594v1.257h6.018l1.03-1.159q.742.594 1.563 1.525l-.307.623h-8.304v1.792h4.701l.683-.732q1.366 1.029 1.366 1.336 0 .148-.188.267l-.505.317v6.355h-1.257v-.832zm-1.901-.97v-2.02H4.138v2.02zm6.097 0v-2.02h-4.8v2.02zm0-2.97v-1.82h-4.8v1.82zm-6.097 0v-1.82H4.138v1.82zM35.152 11.373H31.34v5.78q0 .832-.307 1.15-.465.474-1.801.474 0-.495-.584-.722-.555-.208-2.01-.337v-.831q1.525.188 2.742.188.455 0 .574-.178.09-.149.09-.456v-5.068h-4.237v.654H24.57V5.503l.257.1q.455.168 1.109.445h9.057l.722-.792q1.396 1.05 1.396 1.356 0 .149-.218.307l-.485.346v4.712h-1.257zm0-.97V7.018h-9.344v3.385zm-5.306-7.236V.07q2.138.06 2.138.505 0 .257-.84.545v2.048h5.72l1.05-1.177q.702.564 1.564 1.564l-.347.603H21.977l-.277-.99zm3.89 9.265q3.04 1.584 4.306 2.861.812.831.812 1.406 0 .346-.317.584-.346.267-.574.267-.247 0-.475-.396-1.277-2.158-4.276-4.058zm-12.165 4.781q2.633-1.643 4.563-4.721 1.743.89 1.743 1.336 0 .346-1.08.346-1.82 2.148-4.681 3.712zM52.1 4.405v11.521h5.494l1.238-1.316q.87.732 1.702 1.683l-.386.683H42.737l-.287-1.05h8.275V4.405h-6.691l-.248-1.01h12.67l1.119-1.237q.742.554 1.633 1.564l-.357.683zM71.692 8.76h-7.384l-.277-.97h5.068q-.148-.099-.247-.406-.307-1.01-1.139-1.564l.426-.524q2.098.811 2.098 1.692 0 .505-.792.802h4.494q.05-.08.129-.198.812-1.277 1.217-2.376h-11.68l-.227-.95h6.533V.188q1.96.05 1.96.525 0 .257-.763.554v3h2.406V.147q2.019.13 2.019.565 0 .267-.802.554v3H75.9q1.168-1.802 1.792-3.505 1.821.693 1.821 1.168 0 .307-.95.347-.564.88-1.643 1.99h2.247l.95-1.08q.673.574 1.405 1.426l-.287.603h-5.701q1.425.505 1.425.901 0 .267-.851.376-.723.802-1.257 1.297h3.583l.891-.99q.822.653 1.445 1.376l-.307.584H72.95v1.356h4.316l.851-.87q.604.445 1.228 1.078l.168.178-.346.564h-6.217v1.465h6.078l1.03-1q.752.565 1.504 1.327l-.346.643h-7.622q1.643 1.228 3.316 1.97 2.237 1.01 5.097 1.396-.593.495-1.158 1.316-4.82-1.306-7.899-4.286v4.96h-1.257v-4.742q-3.137 2.742-8.334 4.207l-.485-.723q2.118-.564 4.128-1.643 2.048-1.099 3.593-2.455h-6.989l-.287-.97h8.374v-1.465h-6.018l-.307-.95h6.325zM65.743.881q2.574 1.356 2.574 2.455 0 .366-.376.604-.347.227-.624.227-.336 0-.534-.633-.357-1.168-1.544-2.109zM94.036 7.275q.782 2.88 2.593 5.177 2.326 2.94 6.098 4.395-.654.475-1.238 1.317-1.801-.911-3.068-1.98-3.188-2.702-4.563-6.602-.268-.753-.416-1.396-.782 3.85-3.276 6.572-2.04 2.238-5.464 3.752l-.545-.752q3.583-1.733 5.573-4.375 2.01-2.663 2.514-6.108h-7.523l-.237-1.01h7.869q.06-.653.06-1.256V.653q2.197.1 2.197.584 0 .277-.861.654v3.137q0 .673-.05 1.238h5.84l1.099-1.277q.861.742 1.584 1.643l-.347.643zM115.013 12.027h5.8l1.09-1.198q.89.752 1.504 1.544l-.327.604h-8.007v4.315q0 .802-.367 1.1-.475.385-1.742.385-.03-.465-.574-.653-.465-.158-2.197-.426v-.782q1.445.178 3.078.178.406 0 .485-.197.06-.12.06-.367v-3.553h-8.394l-.238-.95h8.572v-1.97q.9.128 1.307.247 1.257-.87 2.544-2.049h-8.82l-.277-.95h9.324l.723-.732q1.435 1.237 1.435 1.583 0 .188-.297.277l-.752.248q-1.97 1.485-3.93 2.514zm-7.523-6.92q-.079 1.337-.544 2.168-.435.792-1 .792-.356 0-.702-.346-.268-.258-.268-.505 0-.218.248-.465 1.287-1.307 1.415-3.465l.792.178q.04.377.06.674h9.561l.06-.09q1.277-1.98 2-3.989 2.048.782 2.048 1.238 0 .336-1.04.366-.732 1.128-2.009 2.474h3.227l.753-.831q1.573 1.416 1.573 1.86 0 .229-.356.328l-.772.198q-.525.801-1.524 1.81l-.703-.464q.683-1.03.99-1.93zm.911-4.84q2.742 1.495 2.742 2.752 0 .416-.396.643-.386.218-.643.218-.297 0-.416-.425-.465-1.663-1.792-2.663zM112.885 0q2.524 1.643 2.524 2.86 0 .426-.425.654-.396.208-.644.208-.356 0-.435-.515-.159-.93-.822-1.89-.307-.446-.683-.802zM8.552 38.17v-4.74h-1.86l-.268-.911h1.95l.683-.812q1.227 1.04 1.227 1.376 0 .128-.148.227l-.426.278v4.216q.485.96 1.396 1.376 1.495.693 4.098.693 1.673 0 4.098-.327-.426.723-.574 1.446h-2.386q-3.464 0-4.989-.565-1.326-.495-2.098-1.801-.624.91-1.514 1.9.02.208.02.327 0 .455-.218.455-.396 0-1.238-1.415 1.158-.673 2.247-1.722zm-6.404 2.168v1.178H.99v-7.354q.663.217 1.287.485h2.266l.604-.753q1.267 1.03 1.267 1.366 0 .169-.188.297l-.406.287v5.672H4.642v-1.178zm0-.97h2.494v-3.81H2.148zm11.63-6.513q-1.425 2.356-3.345 4.019l-.564-.584q2.247-2.128 3.712-5.316h-2.94l-.268-.91h3.406v-6.93q1.99.07 1.99.535 0 .268-.813.535v5.86h1.861l.832-.95q.663.584 1.138 1.296l-.267.564h-3.564v1.386q1.92 1 2.96 1.94.733.673.733 1.109 0 .267-.317.544t-.545.277q-.237 0-.485-.405-.772-1.297-2.346-2.554v5.444H13.78zM4.84 26.718l.881-1.01q.743.693 1.228 1.357l-.337.623H.287L0 26.718zm-.821 2.653l.89-1.01q.614.555 1.238 1.356l-.327.565H1.138l-.287-.911zm0 2.623l.89-1.01q.515.456 1.238 1.297l-.327.624H1.138l-.307-.911zm-.07-7.85l.872-1.01q.682.634 1.217 1.337l-.346.584H1.316l-.237-.91zm6.77.14q2.208 2.632 2.208 4.127 0 .91-.95.91-.346 0-.406-.584-.178-2.039-1.435-4.008zm-3.404 3.048q2.524 1.564 2.524 2.563 0 .387-.366.644-.317.218-.515.218-.257 0-.406-.406-.485-1.356-1.702-2.475zm.02-4.078q2.534 1.435 2.534 2.583 0 .396-.426.614-.346.188-.515.188-.208 0-.356-.426-.436-1.346-1.722-2.474zm8.334 5.75q.98-2.207 1.544-4.76 1.792.584 1.792 1.039 0 .287-.822.396-.594 1.781-1.86 3.692zM23.6 35.924q-.257 3.276-2.128 5.533l-.653-.505q1.168-1.831 1.495-4.098.168-1.128.168-2.465v-5.81q-.525.663-1.158 1.297l-.545-.505q1.515-1.851 2.386-3.97.475-1.158.88-2.731 1.763.297 1.763.712 0 .248-.752.446-.1.297-.198.544h2.167l.644-.772q1.217 1.02 1.217 1.376 0 .178-.227.287l-.466.218q-.693 1.336-1.524 2.455h1.792l.643-.792q1.208 1 1.208 1.316 0 .149-.169.267l-.425.297v10.978q0 .98-.743 1.257-.485.178-1.207.178.01-.495-.446-.653-.386-.139-1.554-.297v-.753q1.07.139 2.277.139.406 0 .495-.238.04-.118.04-.346v-3.365zm.05-.97h1.89V32.29h-1.88v2.098q0 .367-.01.565zm2.97 0h1.96V32.29h-1.96zm-2.96-3.613h1.88v-2.455h-1.88zm2.96 0h1.96v-2.455h-1.96zm-2.861-3.405h1.97q.801-1.347 1.257-2.614h-2.524q-.624 1.347-1.376 2.435.119.03.317.09.02 0 .356.089zm11.819 6.146v2.386h2.147l.95-1.069q.664.564 1.387 1.396l-.347.643h-4.137v4.078H34.38v-4.078h-4.078l-.277-.97h4.355v-2.386h-2.148q-.475 1.129-1.138 2.04l-.713-.446q1.079-1.9 1.326-4.84 1.822.396 1.822.811 0 .258-.713.446-.109.544-.238 1.02h1.802v-2.574q1.94.07 1.94.515 0 .267-.742.554v1.504H37.2l.87-.98q.733.634 1.317 1.347l-.366.603zm-.733-9.027q-.089 1.485-.594 2.673-.851 2.019-3.276 3.326l-.545-.644q1.891-1.207 2.594-2.93.425-1.02.524-2.425h-2.791l-.267-.95h7.216l.673-.733q1.267.96 1.267 1.307 0 .148-.159.257l-.425.297q-.01 3.772-.822 4.603-.237.248-.712.446-.387.158-.753.168-.01-.495-.495-.663-.415-.149-1.395-.248v-.752q.831.119 1.623.119.693 0 .93-.406.416-.713.426-3.088v-.357zM45.894 23.64q.94-.475 1.752-.475 1.06 0 1.416 1.148.327 1.03.831 2.078.871-.376 1.218-.574.485-.277.782-.663.366-.485.93-.485.644 0 1.02.287.198.159.198.386 0 .277-.376.535-1.277.87-3.287 1.574.763 1.573 1.416 2.751 2.148-.683 2.762-1.435.405-.505 1.069-.505.762 0 1.078.406.12.149.12.327 0 .396-.753.811-1.386.782-3.643 1.515.802 1.396 1.713 2.712.613.881.613 1.425 0 .337-.207.693-.188.327-.505.327-.327 0-.604-.248-.782-.683-2.84-1.098l.227-.753q.93.08 1.88.248l-.128-.248-.396-.782-.406-.811-.426-.842-.138-.277q-3.01.812-4.603.812-2.405 0-3.751-1.831l.465-.663q1.257 1.415 3.217 1.415 1.544 0 4.118-.831l-.07-.13q-.673-1.296-1.267-2.414l-.099-.188q-1.95.564-3.147.564-1.584 0-2.752-1.178l.406-.683q.831.762 2.237.762.96 0 2.712-.505-.475-.88-.91-1.633-.506-.9-1.05-.9-.198 0-.723.138zm-1.296 12.828q.465 1.445 2.019 2.247 1.307.663 3.306.663 1.237 0 2.01-.267.356-.129.663-.129.554 0 1.03.297.464.287.464.723 0 .851-2.751.851-3.178 0-5.197-1.079-1.92-1.02-2.356-2.9zM65.199 33.795h-2.435v6.187h-1.198V32.3q.337.128 1.327.544h2.306v-2.257h-4.83l-.258-.97H65.2v-2.534h-2.554q-.574 1.248-1.346 2.188l-.663-.446q1.346-2.306 1.742-5.632 1.92.376 1.92.871 0 .297-.782.466-.148.702-.465 1.583H65.2V22.75q2.079.05 2.079.515 0 .247-.822.564v2.286h1.97l.871-1.049q.683.554 1.396 1.396l-.367.623h-3.87v2.534h2.673l.95-1.059q.762.644 1.406 1.406l-.367.623h-4.662v2.257h2.455l.663-.752q1.336.99 1.336 1.326 0 .139-.178.258l-.445.277v4.622q0 .881-.584 1.149-.456.217-1.158.217 0-.445-.297-.603-.258-.149-1.168-.297v-.723q.534.099 1.395.099.406 0 .505-.158.09-.13.09-.406v-4.059h-2.614v7.721H65.2zm7.097 3.079V24.996q2 .128 2 .554 0 .267-.782.584v10.74zm.465 2.573q1.515.149 2.821.149.555 0 .693-.158.12-.14.12-.456V22.947q2.048.148 2.048.604 0 .267-.792.594v15.669q0 1.148-1 1.405-.544.139-1.207.139v-.09q0-.504-.733-.712-.524-.148-1.95-.317zM92.907 27.995v3.019h3.524l.95-1.158q.842.732 1.446 1.485l-.327.643h-5.593v3.336h3.623l1.04-1.238q.86.743 1.474 1.564l-.346.624h-5.79v5.246H91.61V27.995h-1.574q-1 2.415-2.811 4.761l-.713-.525q2.554-3.692 3.672-9.462 2.099.376 2.099.88 0 .307-.94.515-.486 1.703-.931 2.88h6.77l1.07-1.256q.87.722 1.563 1.603l-.346.604zm-8.225.88q1.386.199 1.386.585 0 .267-.842.564v11.492H83.97V30.321q-1.217 2.217-2.603 3.84l-.604-.534q3.177-4.395 4.662-10.878 1.95.475 1.95.91 0 .278-.87.486-.862 2.692-1.822 4.73zM112.509 28.985v-3.178q2.02.09 2.02.545 0 .257-.822.604v2.029h1.415l.891-1.05q.841.723 1.346 1.416l-.327.584h-3.266v6.959q0 .97-.723 1.247-.475.188-1.286.188-.01-.366-.188-.495-.307-.228-2.346-.495v-.812q1.158.159 2.593.159.515 0 .643-.159.11-.138.11-.425v-6.167h-6.89l-.327-.95zm-4.97 1.831q2.98 1.94 2.98 3.286 0 .456-.445.693-.327.178-.574.178-.287 0-.436-.534-.455-1.643-2.029-3.079zm-2.959-6.671h13.383l.703-.812q1.346 1.099 1.346 1.465 0 .178-.208.297l-.485.287v16.134h-1.237V40.22h-13.68v1.297h-1.257V23.64q.455.118 1.435.505zm-.178.99V39.17h13.68V25.134zM134.961 29.39v7.226h1.257l.891-1.078q.09.089.337.316.465.436.98 1.09l-.347.583h-3.118v3.99h-1.217v-3.99h-2.96l-.267-.91h3.227v-6.613q-2.04 4.95-5.712 8.295l-.594-.633q3.633-3.564 5.633-9.038l.04-.108h-4.782l-.257-.95h5.672v-4.623q2.078.05 2.078.574 0 .297-.86.604v3.444h3.929l1.02-1.217q.702.604 1.474 1.544l-.316.624h-5.682l.079.148q2.504 4.88 6.493 8.107-.574.366-1.138 1.059-3.573-3.435-5.86-8.443zm-8.463-.494q1.257.178 1.257.564 0 .267-.841.564v11.492h-1.297V30.618q-1.128 2-2.435 3.544l-.604-.535q1.9-2.702 3.108-5.79.891-2.277 1.554-5.088 1.95.475 1.95.91 0 .268-.86.466-.812 2.534-1.832 4.77zM27.256 64.997h-1.558q-2.072-8.286-10.583-8.286-5.865 0-9.065 4.902-2.522 3.896-2.522 9.741 0 4.943 2.338 8.512 1.968 2.994 5.147 4.409 2.133.964 4.553.964 8.737 0 11.69-9.29l1.682.717q-1.723 5.804-4.86 8.43-3.446 2.87-8.983 2.87-6.789 0-11.034-4.819Q0 78.553 0 71.395q0-5.927 2.81-10.316 2.502-3.896 6.624-5.578 2.605-1.067 5.517-1.067 4.266 0 8.286 2.256.964.534 1.497.534.718 0 1.005-1.99h1.517zM34.912 70.78H51.71v2.523H34.912zM57.006 87.167v-1.518q2.543-.102 3.261-.861.636-.677.636-2.502v-22.56q0-1.805-.8-2.38-.697-.512-2.974-.594v-1.518q3.733-.02 6.748-.84v27.892q0 1.989.758 2.645.677.595 3.097.718v1.518zM83.407 63.643q5.496 0 8.573 4.307 2.317 3.24 2.317 7.937 0 4.778-2.276 7.957-2.995 4.164-8.655 4.164-4.86 0-7.835-3.18-3.076-3.301-3.076-8.941 0-5.291 2.871-8.634 3.077-3.61 8.08-3.61zm-.082 2.01q-2.79 0-4.779 2.05-2.727 2.77-2.727 8.081 0 4.287 2.276 7.281 2.215 2.933 5.291 2.933 2.81 0 4.984-2.564 2.564-3.056 2.564-7.67 0-4.266-1.867-7.014-2.112-3.097-5.742-3.097zM120.678 81.588q-3.302 6.42-9.824 6.42-3.569 0-6.297-1.887-4.84-3.323-4.84-10.337 0-4.635 2.318-7.773 2.092-2.85 5.578-3.876 1.723-.492 3.528-.492 3.732 0 6.132 1.907 2.153 1.682 2.153 3.63 0 .718-.287 1.354-.615 1.292-2.071 1.292-1.21 0-1.846-.923-.39-.533-.39-1.271 0-1.477 1.005-1.99-1.292-1.99-4.655-1.99-3.733 0-6.07 3.139-2.031 2.748-2.031 6.993 0 3.097 1.128 5.394 1.025 2.113 2.85 3.302 1.826 1.17 4.082 1.17 5.045 0 8.224-5.415zM124.58 87.167v-1.518q2.584-.102 3.281-.861.616-.636.616-2.502v-22.54q0-1.866-.76-2.4-.676-.492-3.096-.594v-1.518q3.938-.02 6.747-.84v21.308l8.02-6.809q1.271-1.066 1.271-1.825 0-.574-.84-.759-.821-.184-2.4-.307v-1.518h10.746v1.518q-1.907.205-3.26 1.127-1.088.718-3.077 2.441l-4.697 4.02 7.67 9.413q1.847 2.256 5.333 2.646v1.518h-11.382v-1.518q3.281-.225 3.281-1.046 0-.307-.472-.984l-.061-.103-6.399-7.896-3.733 2.933v3.733q0 1.969.78 2.625.718.615 3.076.738v1.518zM154.242 70.78h16.797v2.523h-16.797zM175.126 87.167v-1.518q2.604-.061 3.281-.82.615-.677.615-2.543v-13.31q0-1.744-.758-2.298-.698-.533-3.015-.676v-1.518q3.117 0 6.563-.841v4.758q1.25-2.03 3.753-3.527 2.03-1.231 4.348-1.231 1.66 0 2.707.84 1.19.965 1.19 2.667 0 1.005-.595 1.661-.657.718-1.744.718-.656 0-1.19-.349-1.066-.697-1.066-1.968 0-.657.431-1.293-1.887.041-3.733 1.375-2.42 1.743-3.958 4.45v10.542q0 1.969.718 2.604.78.718 3.445.76v1.517zM208.233 63.643q5.496 0 8.573 4.307 2.317 3.24 2.317 7.937 0 4.778-2.276 7.957-2.995 4.164-8.655 4.164-4.86 0-7.834-3.18-3.077-3.301-3.077-8.941 0-5.291 2.871-8.634 3.077-3.61 8.081-3.61zm-.082 2.01q-2.79 0-4.779 2.05-2.727 2.77-2.727 8.081 0 4.287 2.276 7.281 2.215 2.933 5.291 2.933 2.81 0 4.984-2.564 2.564-3.056 2.564-7.67 0-4.266-1.867-7.014-2.112-3.097-5.742-3.097zM222.739 64.484h9.66v1.518q-3.18.266-3.18 1.476 0 .328.288 1.128l4.901 13.782h.185l5.189-15.73h2.83l4.86 15.812h.165l4.799-13.372q.287-.8.287-1.333 0-.923-.923-1.333-.697-.307-2.215-.43v-1.518h8.778v1.518q-2.584.348-3.712 3.486l-6.502 18.089h-1.764l-5.414-17.002h-.123l-5.763 17.002h-1.764l-6.583-18.438q-1.067-2.932-4-3.137z"/></g></svg>