<?xml version="1.0" encoding="UTF-8" standalone="no"?>
<!-- Created with Inkscape (http://www.inkscape.org/) -->

<svg
   xmlns:dc="http://purl.org/dc/elements/1.1/"
   xmlns:cc="http://creativecommons.org/ns#"
   xmlns:rdf="http://www.w3.org/1999/02/22-rdf-syntax-ns#"
   xmlns:svg="http://www.w3.org/2000/svg"
   xmlns="http://www.w3.org/2000/svg"
   xmlns:sodipodi="http://sodipodi.sourceforge.net/DTD/sodipodi-0.dtd"
   xmlns:inkscape="http://www.inkscape.org/namespaces/inkscape"
   width="226.56091mm"
   height="54.343159mm"
   viewBox="0 0 226.56091 54.343159"
   version="1.1"
   id="svg8"
   inkscape:version="0.92.4 (5da689c313, 2019-01-14)"
   sodipodi:docname="works.svg">
  <defs
     id="defs2" />
  <sodipodi:namedview
     id="base"
     pagecolor="#000000"
     bordercolor="#666666"
     borderopacity="1.0"
     inkscape:pageopacity="0"
     inkscape:pageshadow="2"
     inkscape:zoom="0.35"
     inkscape:cx="-345.97526"
     inkscape:cy="143.43499"
     inkscape:document-units="mm"
     inkscape:current-layer="layer1"
     showgrid="false"
     fit-margin-top="0"
     fit-margin-left="0"
     fit-margin-right="0"
     fit-margin-bottom="0"
     inkscape:window-width="1920"
     inkscape:window-height="986"
     inkscape:window-x="-11"
     inkscape:window-y="-11"
     inkscape:window-maximized="1" />
  <metadata
     id="metadata5">
    <rdf:RDF>
      <cc:Work
         rdf:about="">
        <dc:format>image/svg+xml</dc:format>
        <dc:type
           rdf:resource="http://purl.org/dc/dcmitype/StillImage" />
        <dc:title></dc:title>
      </cc:Work>
    </rdf:RDF>
  </metadata>
  <g
     inkscape:label="レイヤー 1"
     inkscape:groupmode="layer"
     id="layer1"
     transform="translate(-25.771431,-132.44068)">
    <path
       inkscape:connector-curvature="0"
       id="path823"
       style="font-style:normal;font-variant:normal;font-weight:normal;font-stretch:normal;font-size:133.33334351px;line-height:0;font-family:'BIZ UDPMincho';-inkscape-font-specification:'BIZ UDPMincho';font-variant-ligatures:normal;font-variant-caps:normal;font-variant-numeric:normal;font-feature-settings:normal;text-align:start;letter-spacing:4.25px;word-spacing:0px;writing-mode:lr-tb;text-anchor:start;fill:#ffffff;fill-opacity:1;stroke:none;stroke-width:0.50928056"
       d="m 25.771431,133.83325 h 16.312893 v 2.45356 q -2.586188,0.13262 -3.879287,0.62997 -2.121999,0.79575 -2.121999,2.02253 0,1.45888 0.895219,4.27717 l 10.37792,32.55947 h 0.265249 l 10.079513,-37.99711 h 5.205535 l 10.344761,37.99711 h 0.265254 l 8.55432,-32.99051 q 0.663129,-2.55303 0.663129,-3.61403 0,-1.25994 -1.757283,-2.08885 -1.425721,-0.66313 -3.9456,-0.79575 v -2.45356 h 14.820859 v 2.38725 q -4.708192,1.62466 -6.133913,7.06229 L 74.511175,186.25334 H 70.930296 L 59.856097,145.23901 h -0.265248 l -11.007891,41.01433 h -3.11669 L 31.606935,141.92338 q -1.591501,-5.10607 -5.835504,-5.63657 z" />
    <path
       inkscape:connector-curvature="0"
       id="path825"
       style="font-style:normal;font-variant:normal;font-weight:normal;font-stretch:normal;font-size:133.33334351px;line-height:0;font-family:'BIZ UDPMincho';-inkscape-font-specification:'BIZ UDPMincho';font-variant-ligatures:normal;font-variant-caps:normal;font-variant-numeric:normal;font-feature-settings:normal;text-align:start;letter-spacing:4.25px;word-spacing:0px;writing-mode:lr-tb;text-anchor:start;fill:#ffffff;fill-opacity:1;stroke:none;stroke-width:0.50928056"
       d="m 115.46848,147.39417 q 8.88588,0 13.85932,6.96282 3.74666,5.23869 3.74666,12.83148 0,7.72542 -3.68034,12.86464 -4.84082,6.73073 -13.99196,6.73073 -7.85804,0 -12.6657,-5.13923 -4.973444,-5.33816 -4.973444,-14.45614 0,-8.55432 4.641884,-13.95879 4.97344,-5.83551 13.06358,-5.83551 z m -0.13263,3.24931 q -4.50926,0 -7.72542,3.31563 -4.40978,4.4761 -4.40978,13.06358 0,6.92966 3.68035,11.77048 3.58088,4.74135 8.55432,4.74135 4.54241,0 8.05698,-4.14453 4.14453,-4.94029 4.14453,-12.40045 0,-6.89651 -3.01722,-11.33946 -3.4151,-5.0066 -9.28376,-5.0066 z" />
    <path
       inkscape:connector-curvature="0"
       id="path827"
       style="font-style:normal;font-variant:normal;font-weight:normal;font-stretch:normal;font-size:133.33334351px;line-height:0;font-family:'BIZ UDPMincho';-inkscape-font-specification:'BIZ UDPMincho';font-variant-ligatures:normal;font-variant-caps:normal;font-variant-numeric:normal;font-feature-settings:normal;text-align:start;letter-spacing:4.25px;word-spacing:0px;writing-mode:lr-tb;text-anchor:start;fill:#ffffff;fill-opacity:1;stroke:none;stroke-width:0.50928056"
       d="m 139.74817,185.42443 v -2.45356 q 4.21085,-0.0995 5.30501,-1.32626 0.99468,-1.09415 0.99468,-4.11138 V 156.0148 q 0,-2.81828 -1.22678,-3.7135 -1.12731,-0.86207 -4.87397,-1.09416 v -2.45357 q 5.03975,0 10.61001,-1.3594 v 7.69226 q 2.02253,-3.28247 6.0676,-5.70289 3.28247,-1.98937 7.02913,-1.98937 2.68566,0 4.37663,1.3594 1.92307,1.55835 1.92307,4.31033 0,1.62465 -0.96153,2.68565 -1.061,1.16047 -2.81829,1.16047 -1.061,0 -1.92307,-0.56365 -1.72412,-1.12732 -1.72412,-3.18301 0,-1.061 0.69628,-2.08884 -3.05038,0.0663 -6.03445,2.22147 -3.91244,2.81828 -6.39916,7.19491 v 17.04233 q 0,3.18301 1.16047,4.21085 1.25994,1.16047 5.57026,1.22679 v 2.45356 z" />
    <path
       inkscape:connector-curvature="0"
       id="path829"
       style="font-style:normal;font-variant:normal;font-weight:normal;font-stretch:normal;font-size:133.33334351px;line-height:0;font-family:'BIZ UDPMincho';-inkscape-font-specification:'BIZ UDPMincho';font-variant-ligatures:normal;font-variant-caps:normal;font-variant-numeric:normal;font-feature-settings:normal;text-align:start;letter-spacing:4.25px;word-spacing:0px;writing-mode:lr-tb;text-anchor:start;fill:#ffffff;fill-opacity:1;stroke:none;stroke-width:0.50928056"
       d="m 173.94159,185.42443 v -2.45356 q 4.17769,-0.16578 5.305,-1.39257 0.99469,-1.02784 0.99469,-4.04507 v -36.43876 q 0,-3.01722 -1.22678,-3.87928 -1.09415,-0.79576 -5.0066,-0.96154 v -2.45356 q 6.36601,-0.0332 10.90842,-1.35941 v 34.44939 l 12.96411,-11.00789 q 2.05569,-1.72413 2.05569,-2.95091 0,-0.92838 -1.35941,-1.22679 -1.32625,-0.2984 -3.87928,-0.49734 v -2.45357 h 17.37389 v 2.45357 q -3.08354,0.33156 -5.27185,1.8236 -1.75728,1.16047 -4.97344,3.9456 l -7.59279,6.49863 12.40045,15.21873 q 2.98406,3.6472 8.62063,4.27717 v 2.45356 h -18.40173 v -2.45356 q 5.305,-0.36472 5.305,-1.69097 0,-0.49735 -0.76259,-1.5915 l -0.0995,-0.16579 -10.34476,-12.76517 -6.03445,4.74135 v 6.03444 q 0,3.18301 1.25994,4.24401 1.16047,0.99469 4.97344,1.19363 v 2.45356 z" />
    <path
       inkscape:connector-curvature="0"
       id="path831"
       style="font-style:normal;font-variant:normal;font-weight:normal;font-stretch:normal;font-size:133.33334351px;line-height:0;font-family:'BIZ UDPMincho';-inkscape-font-specification:'BIZ UDPMincho';font-variant-ligatures:normal;font-variant-caps:normal;font-variant-numeric:normal;font-feature-settings:normal;text-align:start;letter-spacing:4.25px;word-spacing:0px;writing-mode:lr-tb;text-anchor:start;fill:#ffffff;fill-opacity:1;stroke:none;stroke-width:0.50928056"
       d="m 222.19327,172.12876 h 2.32094 q 1.49204,5.96813 5.33816,8.65379 4.01192,2.81829 8.28907,2.81829 4.01192,0 6.5318,-1.95623 2.4204,-1.85675 2.4204,-4.57556 0,-2.95092 -3.34878,-5.07291 -2.02254,-1.2931 -5.86867,-2.65251 l -1.8899,-0.69628 q -8.25592,-2.91775 -10.67633,-5.33817 -2.38725,-2.38725 -2.38725,-6.29969 0,-4.21085 3.48141,-6.99598 3.24932,-2.61934 9.01851,-2.61934 4.84082,0 8.9522,3.05038 0.72944,0.56365 1.49203,0.56365 0.92838,0 1.22678,-2.25463 h 2.25463 v 11.07421 h -2.58619 q -1.12731,-4.01192 -3.74666,-6.46548 -2.98407,-2.78513 -7.46016,-2.78513 -3.61404,0 -5.60342,1.52519 -2.18831,1.69097 -2.18831,4.50926 0,2.02253 1.92306,3.54772 1.69097,1.29309 7.42701,3.31563 l 2.32094,0.82891 q 7.16176,2.51987 9.94689,5.10606 2.95091,2.75198 2.95091,7.3607 0,4.67504 -3.87929,7.36069 -3.77981,2.65251 -9.74795,2.65251 -5.47078,0 -9.71479,-2.85144 l -0.16578,-0.0995 q -1.55835,-1.061 -1.98938,-1.061 -1.12731,0 -2.32094,3.61404 h -2.32094 z" />
  </g>
</svg>
